<mxfile host="app.diagrams.net" agent="Mozilla/5.0 (Windows NT 10.0; Win64; x64) AppleWebKit/537.36 (KHTML, like Gecko) Chrome/135.0.0.0 Safari/537.36" version="26.2.14">
  <diagram id="C5RBs43oDa-KdzZeNtuy" name="Page-1">
    <mxGraphModel dx="1585" dy="856" grid="1" gridSize="10" guides="1" tooltips="1" connect="1" arrows="1" fold="1" page="1" pageScale="1" pageWidth="827" pageHeight="1169" math="0" shadow="0">
      <root>
        <mxCell id="WIyWlLk6GJQsqaUBKTNV-0" />
        <mxCell id="WIyWlLk6GJQsqaUBKTNV-1" parent="WIyWlLk6GJQsqaUBKTNV-0" />
        <mxCell id="uJ5Yp00N-F_VSl1r0B62-21" style="edgeStyle=orthogonalEdgeStyle;rounded=0;orthogonalLoop=1;jettySize=auto;html=1;entryX=0.5;entryY=0;entryDx=0;entryDy=0;" parent="WIyWlLk6GJQsqaUBKTNV-1" source="WIyWlLk6GJQsqaUBKTNV-3" target="uJ5Yp00N-F_VSl1r0B62-3" edge="1">
          <mxGeometry relative="1" as="geometry" />
        </mxCell>
        <mxCell id="uJ5Yp00N-F_VSl1r0B62-34" style="edgeStyle=orthogonalEdgeStyle;rounded=0;orthogonalLoop=1;jettySize=auto;html=1;entryX=0;entryY=0.5;entryDx=0;entryDy=0;" parent="WIyWlLk6GJQsqaUBKTNV-1" source="WIyWlLk6GJQsqaUBKTNV-3" target="uJ5Yp00N-F_VSl1r0B62-2" edge="1">
          <mxGeometry relative="1" as="geometry">
            <mxPoint x="520" y="405" as="targetPoint" />
          </mxGeometry>
        </mxCell>
        <mxCell id="uJ5Yp00N-F_VSl1r0B62-35" style="edgeStyle=orthogonalEdgeStyle;rounded=0;orthogonalLoop=1;jettySize=auto;html=1;entryX=1;entryY=0.5;entryDx=0;entryDy=0;" parent="WIyWlLk6GJQsqaUBKTNV-1" source="WIyWlLk6GJQsqaUBKTNV-3" target="WIyWlLk6GJQsqaUBKTNV-6" edge="1">
          <mxGeometry relative="1" as="geometry" />
        </mxCell>
        <mxCell id="uJ5Yp00N-F_VSl1r0B62-79" style="edgeStyle=orthogonalEdgeStyle;rounded=0;orthogonalLoop=1;jettySize=auto;html=1;entryX=0.5;entryY=1;entryDx=0;entryDy=0;" parent="WIyWlLk6GJQsqaUBKTNV-1" source="WIyWlLk6GJQsqaUBKTNV-3" target="uJ5Yp00N-F_VSl1r0B62-0" edge="1">
          <mxGeometry relative="1" as="geometry">
            <Array as="points">
              <mxPoint x="414" y="349" />
            </Array>
          </mxGeometry>
        </mxCell>
        <mxCell id="WIyWlLk6GJQsqaUBKTNV-3" value="&lt;font style=&quot;font-size: 11px;&quot;&gt;Form the content of the page &lt;b&gt;&lt;font style=&quot;color: rgb(127, 0, 255);&quot;&gt;quiz.php&lt;/font&gt;&lt;/b&gt; for the first question from the array questions&lt;/font&gt;" style="rounded=1;whiteSpace=wrap;html=1;fontSize=12;glass=0;strokeWidth=1;shadow=0;fillColor=#d5e8d4;strokeColor=#82b366;" parent="WIyWlLk6GJQsqaUBKTNV-1" vertex="1">
          <mxGeometry x="344" y="370" width="140" height="70" as="geometry" />
        </mxCell>
        <mxCell id="uJ5Yp00N-F_VSl1r0B62-11" style="edgeStyle=orthogonalEdgeStyle;rounded=0;orthogonalLoop=1;jettySize=auto;html=1;entryX=1;entryY=0.5;entryDx=0;entryDy=0;" parent="WIyWlLk6GJQsqaUBKTNV-1" source="WIyWlLk6GJQsqaUBKTNV-6" target="uJ5Yp00N-F_VSl1r0B62-10" edge="1">
          <mxGeometry relative="1" as="geometry" />
        </mxCell>
        <mxCell id="uJ5Yp00N-F_VSl1r0B62-76" value="Yes" style="edgeLabel;html=1;align=center;verticalAlign=middle;resizable=0;points=[];" parent="uJ5Yp00N-F_VSl1r0B62-11" vertex="1" connectable="0">
          <mxGeometry x="-0.1423" relative="1" as="geometry">
            <mxPoint as="offset" />
          </mxGeometry>
        </mxCell>
        <mxCell id="WIyWlLk6GJQsqaUBKTNV-6" value="&lt;font style=&quot;font-size: 11px;&quot;&gt;Click on the&amp;nbsp;&lt;/font&gt;&lt;div&gt;&lt;font style=&quot;font-size: 11px;&quot;&gt;&lt;b&gt;Show answer&lt;/b&gt;?&lt;/font&gt;&lt;/div&gt;" style="rhombus;whiteSpace=wrap;html=1;shadow=0;fontFamily=Helvetica;fontSize=12;align=center;strokeWidth=1;spacing=6;spacingTop=-4;" parent="WIyWlLk6GJQsqaUBKTNV-1" vertex="1">
          <mxGeometry x="200" y="359" width="120" height="92.5" as="geometry" />
        </mxCell>
        <mxCell id="uJ5Yp00N-F_VSl1r0B62-0" value="&lt;font style=&quot;font-size: 11px;&quot;&gt;Click on the&amp;nbsp;&lt;/font&gt;&lt;div&gt;&lt;font style=&quot;font-size: 11px;&quot;&gt;&lt;b&gt;Back &lt;/b&gt;button?&lt;/font&gt;&lt;/div&gt;" style="rhombus;whiteSpace=wrap;html=1;" parent="WIyWlLk6GJQsqaUBKTNV-1" vertex="1">
          <mxGeometry x="348" y="270" width="131" height="79" as="geometry" />
        </mxCell>
        <mxCell id="uJ5Yp00N-F_VSl1r0B62-51" style="edgeStyle=orthogonalEdgeStyle;rounded=0;orthogonalLoop=1;jettySize=auto;html=1;entryX=0;entryY=0.5;entryDx=0;entryDy=0;" parent="WIyWlLk6GJQsqaUBKTNV-1" source="uJ5Yp00N-F_VSl1r0B62-2" target="uJ5Yp00N-F_VSl1r0B62-40" edge="1">
          <mxGeometry relative="1" as="geometry" />
        </mxCell>
        <mxCell id="uJ5Yp00N-F_VSl1r0B62-60" value="Yes" style="edgeLabel;html=1;align=center;verticalAlign=middle;resizable=0;points=[];" parent="uJ5Yp00N-F_VSl1r0B62-51" vertex="1" connectable="0">
          <mxGeometry x="0.0709" relative="1" as="geometry">
            <mxPoint x="-4" as="offset" />
          </mxGeometry>
        </mxCell>
        <mxCell id="uJ5Yp00N-F_VSl1r0B62-2" value="&lt;font style=&quot;font-size: 11px;&quot;&gt;Click on the&amp;nbsp;&lt;/font&gt;&lt;div&gt;&lt;font style=&quot;font-size: 11px;&quot;&gt;&lt;b&gt;Next &lt;/b&gt;button?&lt;/font&gt;&lt;/div&gt;" style="rhombus;whiteSpace=wrap;html=1;" parent="WIyWlLk6GJQsqaUBKTNV-1" vertex="1">
          <mxGeometry x="507" y="361.25" width="130" height="87.5" as="geometry" />
        </mxCell>
        <mxCell id="uJ5Yp00N-F_VSl1r0B62-22" style="edgeStyle=orthogonalEdgeStyle;rounded=0;orthogonalLoop=1;jettySize=auto;html=1;entryX=0.5;entryY=0;entryDx=0;entryDy=0;" parent="WIyWlLk6GJQsqaUBKTNV-1" source="uJ5Yp00N-F_VSl1r0B62-3" target="uJ5Yp00N-F_VSl1r0B62-19" edge="1">
          <mxGeometry relative="1" as="geometry" />
        </mxCell>
        <mxCell id="uJ5Yp00N-F_VSl1r0B62-77" value="Yes" style="edgeLabel;html=1;align=center;verticalAlign=middle;resizable=0;points=[];" parent="uJ5Yp00N-F_VSl1r0B62-22" vertex="1" connectable="0">
          <mxGeometry x="-0.0954" y="2" relative="1" as="geometry">
            <mxPoint as="offset" />
          </mxGeometry>
        </mxCell>
        <mxCell id="uJ5Yp00N-F_VSl1r0B62-3" value="&lt;font style=&quot;font-size: 11px;&quot;&gt;Click on the&amp;nbsp;&lt;/font&gt;&lt;div&gt;&lt;font style=&quot;font-size: 11px;&quot;&gt;&lt;b&gt;Check answer&lt;/b&gt;?&lt;/font&gt;&lt;/div&gt;" style="rhombus;whiteSpace=wrap;html=1;" parent="WIyWlLk6GJQsqaUBKTNV-1" vertex="1">
          <mxGeometry x="352" y="470" width="124" height="80" as="geometry" />
        </mxCell>
        <mxCell id="uJ5Yp00N-F_VSl1r0B62-13" style="edgeStyle=orthogonalEdgeStyle;rounded=0;orthogonalLoop=1;jettySize=auto;html=1;entryX=0.5;entryY=0;entryDx=0;entryDy=0;" parent="WIyWlLk6GJQsqaUBKTNV-1" source="uJ5Yp00N-F_VSl1r0B62-10" target="uJ5Yp00N-F_VSl1r0B62-12" edge="1">
          <mxGeometry relative="1" as="geometry" />
        </mxCell>
        <mxCell id="uJ5Yp00N-F_VSl1r0B62-10" value="&lt;font style=&quot;font-size: 9px;&quot;&gt;Identify and send the id of the current question from the &quot;questions&quot;-array&lt;font&gt; &lt;font style=&quot;color: rgb(0, 0, 0);&quot;&gt;to the server&lt;/font&gt;&lt;/font&gt;&lt;/font&gt;" style="shape=process;whiteSpace=wrap;html=1;backgroundOutline=1;" parent="WIyWlLk6GJQsqaUBKTNV-1" vertex="1">
          <mxGeometry x="30" y="375" width="120" height="60" as="geometry" />
        </mxCell>
        <mxCell id="uJ5Yp00N-F_VSl1r0B62-15" style="edgeStyle=orthogonalEdgeStyle;rounded=0;orthogonalLoop=1;jettySize=auto;html=1;entryX=0.5;entryY=0;entryDx=0;entryDy=0;" parent="WIyWlLk6GJQsqaUBKTNV-1" source="uJ5Yp00N-F_VSl1r0B62-12" target="uJ5Yp00N-F_VSl1r0B62-14" edge="1">
          <mxGeometry relative="1" as="geometry" />
        </mxCell>
        <mxCell id="uJ5Yp00N-F_VSl1r0B62-12" value="&lt;font style=&quot;font-size: 9px;&quot;&gt;Find the answer/answers for the question with id = question_id in the table Answers&lt;/font&gt;" style="shape=process;whiteSpace=wrap;html=1;backgroundOutline=1;" parent="WIyWlLk6GJQsqaUBKTNV-1" vertex="1">
          <mxGeometry x="25" y="457.5" width="130" height="60" as="geometry" />
        </mxCell>
        <mxCell id="uJ5Yp00N-F_VSl1r0B62-17" style="edgeStyle=orthogonalEdgeStyle;rounded=0;orthogonalLoop=1;jettySize=auto;html=1;entryX=0.5;entryY=0;entryDx=0;entryDy=0;" parent="WIyWlLk6GJQsqaUBKTNV-1" source="uJ5Yp00N-F_VSl1r0B62-14" target="uJ5Yp00N-F_VSl1r0B62-16" edge="1">
          <mxGeometry relative="1" as="geometry" />
        </mxCell>
        <mxCell id="uJ5Yp00N-F_VSl1r0B62-14" value="&lt;font style=&quot;font-size: 9px;&quot;&gt;Send response with array of answers to the browser&lt;/font&gt;" style="shape=process;whiteSpace=wrap;html=1;backgroundOutline=1;" parent="WIyWlLk6GJQsqaUBKTNV-1" vertex="1">
          <mxGeometry x="27.5" y="540" width="125" height="50" as="geometry" />
        </mxCell>
        <mxCell id="uJ5Yp00N-F_VSl1r0B62-16" value="&lt;font style=&quot;font-size: 9px;&quot;&gt;Add placeholder value to&amp;nbsp;&lt;/font&gt;&lt;div&gt;&lt;font style=&quot;font-size: 9px;&quot;&gt;the input field with elements&amp;nbsp;&lt;/font&gt;&lt;div&gt;&lt;font style=&quot;font-size: 9px;&quot;&gt;from array of answers&lt;/font&gt;&lt;/div&gt;&lt;/div&gt;" style="rounded=1;whiteSpace=wrap;html=1;" parent="WIyWlLk6GJQsqaUBKTNV-1" vertex="1">
          <mxGeometry x="30" y="620" width="120" height="70" as="geometry" />
        </mxCell>
        <mxCell id="uJ5Yp00N-F_VSl1r0B62-18" style="edgeStyle=orthogonalEdgeStyle;rounded=0;orthogonalLoop=1;jettySize=auto;html=1;entryX=0.5;entryY=0;entryDx=0;entryDy=0;" parent="WIyWlLk6GJQsqaUBKTNV-1" source="uJ5Yp00N-F_VSl1r0B62-19" target="uJ5Yp00N-F_VSl1r0B62-20" edge="1">
          <mxGeometry relative="1" as="geometry" />
        </mxCell>
        <mxCell id="uJ5Yp00N-F_VSl1r0B62-19" value="&lt;font style=&quot;font-size: 9px;&quot;&gt;Identify and send the id of the current question from the &quot;questions&quot;-array and the value of the input field&lt;font&gt; &lt;font style=&quot;color: rgb(0, 0, 0);&quot;&gt;to the server&lt;/font&gt;&lt;/font&gt;&lt;/font&gt;" style="shape=process;whiteSpace=wrap;html=1;backgroundOutline=1;" parent="WIyWlLk6GJQsqaUBKTNV-1" vertex="1">
          <mxGeometry x="335" y="590" width="159" height="60" as="geometry" />
        </mxCell>
        <mxCell id="uJ5Yp00N-F_VSl1r0B62-24" style="edgeStyle=orthogonalEdgeStyle;rounded=0;orthogonalLoop=1;jettySize=auto;html=1;entryX=0.5;entryY=0;entryDx=0;entryDy=0;" parent="WIyWlLk6GJQsqaUBKTNV-1" source="uJ5Yp00N-F_VSl1r0B62-20" target="uJ5Yp00N-F_VSl1r0B62-23" edge="1">
          <mxGeometry relative="1" as="geometry" />
        </mxCell>
        <mxCell id="uJ5Yp00N-F_VSl1r0B62-20" value="&lt;font style=&quot;font-size: 9px;&quot;&gt;Find the answer/answers for the question with id = question_id in the table Answers and compare it/them with the right answer&lt;/font&gt;" style="shape=process;whiteSpace=wrap;html=1;backgroundOutline=1;" parent="WIyWlLk6GJQsqaUBKTNV-1" vertex="1">
          <mxGeometry x="330" y="674.5" width="170" height="65.5" as="geometry" />
        </mxCell>
        <mxCell id="uJ5Yp00N-F_VSl1r0B62-26" style="edgeStyle=orthogonalEdgeStyle;rounded=0;orthogonalLoop=1;jettySize=auto;html=1;entryX=0.5;entryY=0;entryDx=0;entryDy=0;" parent="WIyWlLk6GJQsqaUBKTNV-1" source="uJ5Yp00N-F_VSl1r0B62-23" target="uJ5Yp00N-F_VSl1r0B62-25" edge="1">
          <mxGeometry relative="1" as="geometry" />
        </mxCell>
        <mxCell id="uJ5Yp00N-F_VSl1r0B62-23" value="&lt;font style=&quot;font-size: 9px;&quot;&gt;Send response &lt;b&gt;True &lt;/b&gt;or &lt;b&gt;False &lt;/b&gt;back &lt;font style=&quot;color: rgb(0, 0, 0);&quot;&gt;to the server&lt;/font&gt;&lt;/font&gt;" style="shape=process;whiteSpace=wrap;html=1;backgroundOutline=1;" parent="WIyWlLk6GJQsqaUBKTNV-1" vertex="1">
          <mxGeometry x="354.5" y="760" width="120" height="50" as="geometry" />
        </mxCell>
        <mxCell id="uJ5Yp00N-F_VSl1r0B62-30" style="edgeStyle=orthogonalEdgeStyle;rounded=0;orthogonalLoop=1;jettySize=auto;html=1;entryX=1;entryY=0.5;entryDx=0;entryDy=0;" parent="WIyWlLk6GJQsqaUBKTNV-1" source="uJ5Yp00N-F_VSl1r0B62-25" target="uJ5Yp00N-F_VSl1r0B62-27" edge="1">
          <mxGeometry relative="1" as="geometry" />
        </mxCell>
        <mxCell id="uJ5Yp00N-F_VSl1r0B62-32" value="Yes" style="edgeLabel;html=1;align=center;verticalAlign=middle;resizable=0;points=[];" parent="uJ5Yp00N-F_VSl1r0B62-30" vertex="1" connectable="0">
          <mxGeometry x="0.1855" y="-1" relative="1" as="geometry">
            <mxPoint x="8" y="1" as="offset" />
          </mxGeometry>
        </mxCell>
        <mxCell id="uJ5Yp00N-F_VSl1r0B62-31" style="edgeStyle=orthogonalEdgeStyle;rounded=0;orthogonalLoop=1;jettySize=auto;html=1;entryX=0;entryY=0.5;entryDx=0;entryDy=0;" parent="WIyWlLk6GJQsqaUBKTNV-1" source="uJ5Yp00N-F_VSl1r0B62-25" target="uJ5Yp00N-F_VSl1r0B62-28" edge="1">
          <mxGeometry relative="1" as="geometry" />
        </mxCell>
        <mxCell id="uJ5Yp00N-F_VSl1r0B62-33" value="No" style="edgeLabel;html=1;align=center;verticalAlign=middle;resizable=0;points=[];" parent="uJ5Yp00N-F_VSl1r0B62-31" vertex="1" connectable="0">
          <mxGeometry x="-0.1118" relative="1" as="geometry">
            <mxPoint as="offset" />
          </mxGeometry>
        </mxCell>
        <mxCell id="uJ5Yp00N-F_VSl1r0B62-25" value="Is True?" style="rhombus;whiteSpace=wrap;html=1;" parent="WIyWlLk6GJQsqaUBKTNV-1" vertex="1">
          <mxGeometry x="354" y="840" width="120" height="60" as="geometry" />
        </mxCell>
        <mxCell id="uJ5Yp00N-F_VSl1r0B62-27" value="Make the border of input field &lt;font style=&quot;color: rgb(0, 204, 0);&quot;&gt;green&lt;/font&gt;" style="rounded=1;whiteSpace=wrap;html=1;fontSize=9;strokeColor=#00CC00;" parent="WIyWlLk6GJQsqaUBKTNV-1" vertex="1">
          <mxGeometry x="210" y="839" width="90" height="60" as="geometry" />
        </mxCell>
        <mxCell id="uJ5Yp00N-F_VSl1r0B62-28" value="Make the border of input field &lt;font style=&quot;color: rgb(255, 0, 0);&quot;&gt;red&lt;/font&gt;" style="rounded=1;whiteSpace=wrap;html=1;fontSize=9;strokeColor=#FF0000;" parent="WIyWlLk6GJQsqaUBKTNV-1" vertex="1">
          <mxGeometry x="540" y="839" width="90" height="60" as="geometry" />
        </mxCell>
        <mxCell id="uJ5Yp00N-F_VSl1r0B62-53" style="edgeStyle=orthogonalEdgeStyle;rounded=0;orthogonalLoop=1;jettySize=auto;html=1;entryX=0.5;entryY=0;entryDx=0;entryDy=0;" parent="WIyWlLk6GJQsqaUBKTNV-1" source="uJ5Yp00N-F_VSl1r0B62-36" target="uJ5Yp00N-F_VSl1r0B62-37" edge="1">
          <mxGeometry relative="1" as="geometry">
            <Array as="points">
              <mxPoint x="615" y="503" />
            </Array>
          </mxGeometry>
        </mxCell>
        <mxCell id="uJ5Yp00N-F_VSl1r0B62-54" value="Yes" style="edgeLabel;html=1;align=center;verticalAlign=middle;resizable=0;points=[];" parent="uJ5Yp00N-F_VSl1r0B62-53" vertex="1" connectable="0">
          <mxGeometry x="-0.4768" relative="1" as="geometry">
            <mxPoint as="offset" />
          </mxGeometry>
        </mxCell>
        <mxCell id="uJ5Yp00N-F_VSl1r0B62-36" value="&lt;font style=&quot;font-size: 9px; line-height: 80%;&quot;&gt;Check if the id of&amp;nbsp;&lt;/font&gt;&lt;div&gt;&lt;font style=&quot;font-size: 9px; line-height: 80%;&quot;&gt;current question is equal to the&lt;/font&gt;&lt;/div&gt;&lt;div&gt;&lt;font style=&quot;font-size: 9px; line-height: 80%;&quot;&gt;&amp;nbsp;length of Questions&lt;/font&gt;&lt;/div&gt;&lt;div&gt;&lt;font style=&quot;font-size: 9px; line-height: 80%;&quot;&gt;&amp;nbsp;array?&lt;/font&gt;&lt;/div&gt;" style="rhombus;whiteSpace=wrap;html=1;spacing=-6;" parent="WIyWlLk6GJQsqaUBKTNV-1" vertex="1">
          <mxGeometry x="665" y="457.5" width="150" height="90" as="geometry" />
        </mxCell>
        <mxCell id="uJ5Yp00N-F_VSl1r0B62-58" style="edgeStyle=orthogonalEdgeStyle;rounded=0;orthogonalLoop=1;jettySize=auto;html=1;entryX=0;entryY=0.5;entryDx=0;entryDy=0;exitX=0.5;exitY=1;exitDx=0;exitDy=0;" parent="WIyWlLk6GJQsqaUBKTNV-1" source="uJ5Yp00N-F_VSl1r0B62-37" target="uJ5Yp00N-F_VSl1r0B62-45" edge="1">
          <mxGeometry relative="1" as="geometry" />
        </mxCell>
        <mxCell id="uJ5Yp00N-F_VSl1r0B62-37" value="&lt;font style=&quot;font-size: 9px;&quot;&gt;Set the id of the current&amp;nbsp;question equal to 0&lt;/font&gt;" style="shape=process;whiteSpace=wrap;html=1;backgroundOutline=1;" parent="WIyWlLk6GJQsqaUBKTNV-1" vertex="1">
          <mxGeometry x="570" y="542.5" width="90" height="50" as="geometry" />
        </mxCell>
        <mxCell id="uJ5Yp00N-F_VSl1r0B62-52" style="edgeStyle=orthogonalEdgeStyle;rounded=0;orthogonalLoop=1;jettySize=auto;html=1;entryX=0.5;entryY=0;entryDx=0;entryDy=0;" parent="WIyWlLk6GJQsqaUBKTNV-1" source="uJ5Yp00N-F_VSl1r0B62-40" target="uJ5Yp00N-F_VSl1r0B62-36" edge="1">
          <mxGeometry relative="1" as="geometry" />
        </mxCell>
        <mxCell id="uJ5Yp00N-F_VSl1r0B62-40" value="&lt;font style=&quot;font-size: 9px;&quot;&gt;Increase the id of the current question by 1&lt;/font&gt;" style="shape=process;whiteSpace=wrap;html=1;backgroundOutline=1;" parent="WIyWlLk6GJQsqaUBKTNV-1" vertex="1">
          <mxGeometry x="690" y="382.5" width="100" height="45" as="geometry" />
        </mxCell>
        <mxCell id="uJ5Yp00N-F_VSl1r0B62-45" value="&lt;font style=&quot;font-size: 9px;&quot;&gt;Form the content of the&amp;nbsp;&lt;/font&gt;&lt;div&gt;&lt;font style=&quot;font-size: 9px;&quot;&gt;page &lt;font style=&quot;color: rgb(127, 0, 255);&quot;&gt;quiz.php&lt;/font&gt; for the question&amp;nbsp;&lt;/font&gt;&lt;span style=&quot;font-size: 9px; background-color: transparent; color: light-dark(rgb(0, 0, 0), rgb(255, 255, 255));&quot;&gt;with current id&lt;/span&gt;&lt;/div&gt;&lt;div&gt;&lt;span style=&quot;font-size: 9px; background-color: transparent; color: light-dark(rgb(0, 0, 0), rgb(255, 255, 255));&quot;&gt;&amp;nbsp;from the&amp;nbsp;&lt;/span&gt;&lt;span style=&quot;font-size: 9px; background-color: transparent; color: light-dark(rgb(0, 0, 0), rgb(255, 255, 255));&quot;&gt;array questions&lt;/span&gt;&lt;/div&gt;" style="rounded=1;whiteSpace=wrap;html=1;" parent="WIyWlLk6GJQsqaUBKTNV-1" vertex="1">
          <mxGeometry x="670" y="640" width="120" height="80" as="geometry" />
        </mxCell>
        <mxCell id="uJ5Yp00N-F_VSl1r0B62-69" style="edgeStyle=orthogonalEdgeStyle;rounded=0;orthogonalLoop=1;jettySize=auto;html=1;entryX=0;entryY=0.5;entryDx=0;entryDy=0;" parent="WIyWlLk6GJQsqaUBKTNV-1" source="uJ5Yp00N-F_VSl1r0B62-50" target="uJ5Yp00N-F_VSl1r0B62-68" edge="1">
          <mxGeometry relative="1" as="geometry" />
        </mxCell>
        <mxCell id="uJ5Yp00N-F_VSl1r0B62-70" value="Yes" style="edgeLabel;html=1;align=center;verticalAlign=middle;resizable=0;points=[];" parent="uJ5Yp00N-F_VSl1r0B62-69" vertex="1" connectable="0">
          <mxGeometry x="-0.0902" y="1" relative="1" as="geometry">
            <mxPoint as="offset" />
          </mxGeometry>
        </mxCell>
        <mxCell id="uJ5Yp00N-F_VSl1r0B62-72" style="edgeStyle=orthogonalEdgeStyle;rounded=0;orthogonalLoop=1;jettySize=auto;html=1;entryX=0;entryY=0.5;entryDx=0;entryDy=0;exitX=0.5;exitY=1;exitDx=0;exitDy=0;" parent="WIyWlLk6GJQsqaUBKTNV-1" source="uJ5Yp00N-F_VSl1r0B62-50" target="uJ5Yp00N-F_VSl1r0B62-71" edge="1">
          <mxGeometry relative="1" as="geometry" />
        </mxCell>
        <mxCell id="uJ5Yp00N-F_VSl1r0B62-73" value="No" style="edgeLabel;html=1;align=center;verticalAlign=middle;resizable=0;points=[];" parent="uJ5Yp00N-F_VSl1r0B62-72" vertex="1" connectable="0">
          <mxGeometry x="-0.5111" relative="1" as="geometry">
            <mxPoint y="-15" as="offset" />
          </mxGeometry>
        </mxCell>
        <mxCell id="uJ5Yp00N-F_VSl1r0B62-50" value="&lt;font style=&quot;font-size: 9px; line-height: 80%;&quot;&gt;Check if the id of&amp;nbsp;&lt;/font&gt;&lt;div&gt;&lt;font style=&quot;font-size: 9px; line-height: 80%;&quot;&gt;current question is 0&lt;/font&gt;&lt;span style=&quot;font-size: 9px; background-color: transparent; color: light-dark(rgb(0, 0, 0), rgb(255, 255, 255));&quot;&gt;?&lt;/span&gt;&lt;/div&gt;" style="rhombus;whiteSpace=wrap;html=1;spacing=-6;" parent="WIyWlLk6GJQsqaUBKTNV-1" vertex="1">
          <mxGeometry x="380" y="60" width="120" height="90" as="geometry" />
        </mxCell>
        <mxCell id="uJ5Yp00N-F_VSl1r0B62-56" style="edgeStyle=orthogonalEdgeStyle;rounded=0;orthogonalLoop=1;jettySize=auto;html=1;entryX=0.588;entryY=0.007;entryDx=0;entryDy=0;entryPerimeter=0;" parent="WIyWlLk6GJQsqaUBKTNV-1" source="uJ5Yp00N-F_VSl1r0B62-36" target="uJ5Yp00N-F_VSl1r0B62-45" edge="1">
          <mxGeometry relative="1" as="geometry" />
        </mxCell>
        <mxCell id="uJ5Yp00N-F_VSl1r0B62-57" value="No" style="edgeLabel;html=1;align=center;verticalAlign=middle;resizable=0;points=[];" parent="uJ5Yp00N-F_VSl1r0B62-56" vertex="1" connectable="0">
          <mxGeometry x="-0.1647" relative="1" as="geometry">
            <mxPoint as="offset" />
          </mxGeometry>
        </mxCell>
        <mxCell id="uJ5Yp00N-F_VSl1r0B62-67" style="edgeStyle=orthogonalEdgeStyle;rounded=0;orthogonalLoop=1;jettySize=auto;html=1;entryX=0;entryY=0.5;entryDx=0;entryDy=0;exitX=0.5;exitY=0;exitDx=0;exitDy=0;" parent="WIyWlLk6GJQsqaUBKTNV-1" source="uJ5Yp00N-F_VSl1r0B62-59" target="uJ5Yp00N-F_VSl1r0B62-50" edge="1">
          <mxGeometry relative="1" as="geometry" />
        </mxCell>
        <mxCell id="uJ5Yp00N-F_VSl1r0B62-59" value="&lt;font style=&quot;font-size: 9px;&quot;&gt;Decrease the id of the current question by 1&lt;/font&gt;" style="shape=process;whiteSpace=wrap;html=1;backgroundOutline=1;" parent="WIyWlLk6GJQsqaUBKTNV-1" vertex="1">
          <mxGeometry x="243" y="160" width="100" height="45" as="geometry" />
        </mxCell>
        <mxCell id="uJ5Yp00N-F_VSl1r0B62-64" style="edgeStyle=orthogonalEdgeStyle;rounded=0;orthogonalLoop=1;jettySize=auto;html=1;entryX=0.5;entryY=1;entryDx=0;entryDy=0;exitX=0;exitY=0.5;exitDx=0;exitDy=0;" parent="WIyWlLk6GJQsqaUBKTNV-1" source="uJ5Yp00N-F_VSl1r0B62-0" target="uJ5Yp00N-F_VSl1r0B62-59" edge="1">
          <mxGeometry relative="1" as="geometry">
            <Array as="points">
              <mxPoint x="293" y="310" />
            </Array>
          </mxGeometry>
        </mxCell>
        <mxCell id="uJ5Yp00N-F_VSl1r0B62-65" value="Yes" style="edgeLabel;html=1;align=center;verticalAlign=middle;resizable=0;points=[];" parent="uJ5Yp00N-F_VSl1r0B62-64" vertex="1" connectable="0">
          <mxGeometry x="0.1046" relative="1" as="geometry">
            <mxPoint as="offset" />
          </mxGeometry>
        </mxCell>
        <mxCell id="uJ5Yp00N-F_VSl1r0B62-74" style="edgeStyle=orthogonalEdgeStyle;rounded=0;orthogonalLoop=1;jettySize=auto;html=1;entryX=0.5;entryY=0;entryDx=0;entryDy=0;" parent="WIyWlLk6GJQsqaUBKTNV-1" source="uJ5Yp00N-F_VSl1r0B62-68" target="uJ5Yp00N-F_VSl1r0B62-71" edge="1">
          <mxGeometry relative="1" as="geometry" />
        </mxCell>
        <mxCell id="uJ5Yp00N-F_VSl1r0B62-68" value="&lt;font style=&quot;font-size: 9px;&quot;&gt;Set the id of the current&amp;nbsp;question equal to the length of the array Questions&lt;/font&gt;" style="shape=process;whiteSpace=wrap;html=1;backgroundOutline=1;" parent="WIyWlLk6GJQsqaUBKTNV-1" vertex="1">
          <mxGeometry x="560" y="70" width="140" height="70" as="geometry" />
        </mxCell>
        <mxCell id="uJ5Yp00N-F_VSl1r0B62-71" value="&lt;font style=&quot;font-size: 9px;&quot;&gt;Form the content of the page &lt;font style=&quot;color: rgb(127, 0, 255);&quot;&gt;quiz.php&lt;/font&gt; for the question with current id from the array questions&lt;/font&gt;" style="rounded=1;whiteSpace=wrap;html=1;" parent="WIyWlLk6GJQsqaUBKTNV-1" vertex="1">
          <mxGeometry x="570" y="190" width="120" height="65.5" as="geometry" />
        </mxCell>
      </root>
    </mxGraphModel>
  </diagram>
</mxfile>
